<?xml version="1.0" encoding="utf-8"?>
<svg xmlns="http://www.w3.org/2000/svg" xmlns:xlink="http://www.w3.org/1999/xlink" version="1.1" id="Layer_2" x="0px" y="0px" viewBox="0 0 800 800" style="enable-background:new 0 0 800 800;">
<style type="text/css">
	.st0{fill:#FF0000;}
</style>
<path id="Shape" class="st0" d="M398.9,132l-61.2-87.3l-30-42.8c-0.5-0.8-1.3-1.2-2.2-1.2h-281c-1,0-1.3,0.4-1.3,1.1v423&#xD;&#xA;	c-0.1,1,0.2,1.9,0.9,2.6l27.9,33.2l107.2,127.8l24.7,29.5l38.1,45.3l113.4,135.2c0.5,0.7,1.4,1.1,2.2,0.9h124.6&#xD;&#xA;	c0.9,0.1,1.7-0.3,2.2-0.9l113.4-135.1L616,618l24.7-29.5L748,460.7l27.9-33.3c0.7-0.7,1-1.6,0.9-2.6V1.7c0-0.7-0.4-1.1-1.3-1.1&#xD;&#xA;	H494.4c-0.9-0.1-1.8,0.4-2.2,1.2l-30,42.8L401,132C400.2,133.3,399.9,133.5,398.9,132z M398.7,662.2l-169-201.5l-1.9-2.2&#xD;&#xA;	c-0.6-0.7-0.7-1.6-0.4-2.4L262,327c0.6-2.2,0-2.4-2.1-2.4h-99.1c-1.2,0-1.5-0.4-1.5-1.7V138.4c0-1.4,0.4-1.7,1.8-1.7h73.4&#xD;&#xA;	c1-0.1,2,0.3,2.4,1.2l54.8,78.4l47.2,67.5c0.8,1.6,2.6,2.5,4.3,2.2h113.4c1.8,0.3,3.5-0.6,4.3-2.2l47.2-67.5l54.8-78.4&#xD;&#xA;	c0.5-0.9,1.5-1.3,2.4-1.2H639c1.3,0,1.8,0.2,1.8,1.7v184.5c0,1.3-0.3,1.8-1.5,1.7h-99.1c-2,0-2.7,0.2-2.1,2.4l34.6,129&#xD;&#xA;	c0.4,0.8,0.2,1.7-0.4,2.4l-1.9,2.2L401.4,662.2C400.2,663.4,400,663.7,398.7,662.2z"/>
</svg>